PathFileType	4	(X/Y/Z)	 control3min.trc
DataRate	CameraRate	NumFrames	NumMarkers	Units	OrigDataRate	OrigDataStartFrame	OrigNumFrames
200	200	10	35	m	200	626	1000
Frame#	Time	C7			LSH			RSH			MAN			RASI			LASI			HIPR			HIPL			RPSI			LPSI			COX			RTHI1			RTHI2			RTHI3			RTHI4			RSHA1			RSHA2			RSHA3			RSHA4			RHEEL			RMET5			RMET1			RTOE			LTHI1			LTHI2			LTHI3			LTHI4			LSHA1			LSHA2			LSHA3			LSHA4			LHEEL			LMET5			LMET1			LTOE			
		X1	Y1	Z1	X2	Y2	Z2	X3	Y3	Z3	X4	Y4	Z4	X5	Y5	Z5	X6	Y6	Z6	X7	Y7	Z7	X8	Y8	Z8	X9	Y9	Z9	X10	Y10	Z10	X11	Y11	Z11	X12	Y12	Z12	X13	Y13	Z13	X14	Y14	Z14	X15	Y15	Z15	X16	Y16	Z16	X17	Y17	Z17	X18	Y18	Z18	X19	Y19	Z19	X20	Y20	Z20	X21	Y21	Z21	X22	Y22	Z22	X23	Y23	Z23	X24	Y24	Z24	X25	Y25	Z25	X26	Y26	Z26	X27	Y27	Z27	X28	Y28	Z28	X29	Y29	Z29	X30	Y30	Z30	X31	Y31	Z31	X32	Y32	Z32	X33	Y33	Z33	X34	Y34	Z34	X35	Y35	Z35	
626	3.1300	-0.261319	1.381783	-0.591642	-0.203527	1.347904	-0.763551	-0.207937	1.364465	-0.419491	-0.144777	1.338298	-0.591254	-0.117003	0.954937	-0.507255	-0.119599	0.958647	-0.683316	-0.182065	1.004082	-0.456849	-0.172117	1.012928	-0.716810	-0.263996	0.985355	-0.523339	-0.262587	0.992601	-0.639834	-0.269005	0.996269	-0.581522	-0.195018	0.775638	-0.413899	-0.189266	0.714141	-0.409978	-0.118835	0.727161	-0.427369	-0.132717	0.785691	-0.429288	-0.243114	0.350906	-0.384142	-0.264075	0.313125	-0.388195	-0.208125	0.290949	-0.396302	-0.192086	0.327955	-0.396430	-0.364632	0.121073	-0.443799	-0.233086	0.035287	-0.375008	-0.199616	0.036740	-0.446003	-0.179023	0.027365	-0.437469	-0.216070	0.734825	-0.761603	-0.207466	0.676257	-0.760290	-0.135807	0.687826	-0.763709	-0.152346	0.746747	-0.766556	-0.263151	0.324923	-0.769688	-0.281109	0.289088	-0.765386	-0.221988	0.267257	-0.765384	-0.211457	0.309835	-0.770724	-0.357185	0.127706	-0.718268	-0.228948	0.033162	-0.779220	-0.193199	0.037427	-0.713699	-0.174266	0.027202	-0.722974	
627	3.1350	-0.261507	1.386888	-0.591621	-0.203902	1.353544	-0.763320	-0.208014	1.369983	-0.419806	-0.145547	1.343825	-0.591324	-0.116513	0.960336	-0.507612	-0.119160	0.964058	-0.683289	-0.181324	1.009707	-0.457037	-0.171748	1.018542	-0.716676	-0.263058	0.990738	-0.523368	-0.261845	0.997898	-0.639649	-0.268287	1.001570	-0.581514	-0.195061	0.781199	-0.413962	-0.189823	0.719651	-0.409897	-0.119229	0.732077	-0.427099	-0.132633	0.790694	-0.429205	-0.244154	0.354733	-0.383679	-0.264603	0.316703	-0.387718	-0.208320	0.295278	-0.395574	-0.192786	0.332522	-0.395755	-0.362345	0.124504	-0.443232	-0.232223	0.036066	-0.375003	-0.198951	0.037332	-0.445521	-0.178715	0.027493	-0.437179	-0.216388	0.740838	-0.761960	-0.208250	0.682192	-0.760833	-0.136517	0.693202	-0.764386	-0.152589	0.752267	-0.767038	-0.263811	0.328716	-0.770597	-0.281209	0.292578	-0.766224	-0.221817	0.271593	-0.766755	-0.211888	0.314340	-0.772012	-0.354732	0.131039	-0.719249	-0.228101	0.033787	-0.779341	-0.192629	0.037834	-0.714216	-0.174114	0.027282	-0.723372	
628	3.1400	-0.261677	1.391811	-0.591586	-0.204260	1.358986	-0.763085	-0.208059	1.375332	-0.420110	-0.146247	1.349166	-0.591403	-0.116052	0.965492	-0.507966	-0.118729	0.969239	-0.683245	-0.180603	1.015109	-0.457208	-0.171349	1.023943	-0.716550	-0.262133	0.995948	-0.523381	-0.261110	1.003044	-0.639443	-0.267592	1.006721	-0.581501	-0.195113	0.786566	-0.414047	-0.190383	0.724964	-0.409850	-0.119628	0.736809	-0.426826	-0.132560	0.795519	-0.429107	-0.245166	0.358409	-0.383271	-0.265090	0.320169	-0.387301	-0.208480	0.299467	-0.394881	-0.193465	0.336941	-0.395109	-0.360047	0.127870	-0.442630	-0.231303	0.036935	-0.374976	-0.198183	0.038003	-0.445074	-0.178307	0.027656	-0.436886	-0.216779	0.746679	-0.762190	-0.209126	0.687955	-0.761256	-0.137328	0.698382	-0.765104	-0.152917	0.757590	-0.767538	-0.264455	0.332390	-0.771494	-0.281286	0.295935	-0.767048	-0.221633	0.275797	-0.768120	-0.212303	0.318669	-0.773264	-0.352238	0.134292	-0.720230	-0.227183	0.034478	-0.779483	-0.191999	0.038290	-0.714719	-0.173907	0.027386	-0.723793	
629	3.1450	-0.261837	1.396540	-0.591548	-0.204604	1.364210	-0.762849	-0.208071	1.380468	-0.420416	-0.146568	1.354410	-0.591499	-0.115602	0.970381	-0.508331	-0.118302	0.974171	-0.683191	-0.179895	1.020259	-0.457361	-0.170910	1.029100	-0.716432	-0.261235	1.000971	-0.523393	-0.260394	1.008003	-0.639277	-0.266915	1.011698	-0.581488	-0.195167	0.791713	-0.414154	-0.190936	0.730056	-0.409838	-0.120023	0.741352	-0.426556	-0.132491	0.800146	-0.429004	-0.246145	0.361943	-0.382933	-0.265528	0.323517	-0.386935	-0.208603	0.303523	-0.394234	-0.194125	0.341192	-0.394490	-0.357746	0.131125	-0.441971	-0.230323	0.037903	-0.374938	-0.197327	0.038751	-0.444664	-0.177810	0.027836	-0.436585	-0.217238	0.752305	-0.762290	-0.210063	0.693494	-0.761520	-0.138219	0.703331	-0.765841	-0.153325	0.762689	-0.768045	-0.265081	0.335926	-0.772374	-0.281342	0.299148	-0.767857	-0.221440	0.279852	-0.769475	-0.212723	0.322848	-0.774508	-0.349713	0.137478	-0.721246	-0.226195	0.035238	-0.779648	-0.191309	0.038799	-0.715215	-0.173631	0.027524	-0.724237	
630	3.1500	-0.261992	1.401063	-0.591514	-0.204949	1.369228	-0.762624	-0.208052	1.385378	-0.420718	-0.146860	1.359433	-0.591595	-0.115181	0.974980	-0.508678	-0.117883	0.978830	-0.683126	-0.179207	1.025147	-0.457504	-0.170430	1.033993	-0.716325	-0.260369	1.005793	-0.523394	-0.259684	1.012775	-0.639103	-0.266256	1.016490	-0.581475	-0.195223	0.796622	-0.414274	-0.191478	0.734926	-0.409852	-0.120412	0.745679	-0.426298	-0.132424	0.804557	-0.428896	-0.247078	0.365331	-0.382664	-0.265916	0.326707	-0.386607	-0.208705	0.307428	-0.393622	-0.194755	0.345269	-0.393929	-0.355464	0.134268	-0.441276	-0.229288	0.038969	-0.374900	-0.196393	0.039567	-0.444278	-0.177213	0.028071	-0.436280	-0.217754	0.757673	-0.762266	-0.211042	0.698764	-0.761625	-0.139174	0.708034	-0.766587	-0.153804	0.767542	-0.768544	-0.265679	0.339322	-0.773236	-0.281369	0.302219	-0.768640	-0.221239	0.283751	-0.770813	-0.213131	0.326853	-0.775709	-0.347175	0.140581	-0.722297	-0.225145	0.036067	-0.779841	-0.190558	0.039379	-0.715723	-0.173281	0.027711	-0.724714	
631	3.1550	-0.262142	1.405371	-0.591490	-0.205292	1.374022	-0.762412	-0.208015	1.390058	-0.421009	-0.147120	1.364221	-0.591702	-0.114796	0.979303	-0.509002	-0.117468	0.983209	-0.683059	-0.178523	1.029750	-0.457642	-0.169914	1.038606	-0.716228	-0.259537	1.010400	-0.523397	-0.258993	1.017331	-0.638969	-0.265616	1.021079	-0.581469	-0.195278	0.801281	-0.414408	-0.192002	0.739544	-0.409887	-0.120793	0.749775	-0.426055	-0.132363	0.808721	-0.428786	-0.247957	0.368565	-0.382480	-0.266254	0.329740	-0.386323	-0.208788	0.311160	-0.393041	-0.195346	0.349166	-0.393453	-0.353240	0.137288	-0.440575	-0.228212	0.040131	-0.374868	-0.195394	0.040472	-0.443892	-0.176538	0.028350	-0.435932	-0.218318	0.762753	-0.762120	-0.212038	0.703749	-0.761578	-0.140178	0.712469	-0.767320	-0.154352	0.772127	-0.769027	-0.266221	0.342529	-0.774043	-0.281362	0.305133	-0.769416	-0.221023	0.287474	-0.772120	-0.213502	0.330684	-0.776864	-0.344650	0.143604	-0.723386	-0.224038	0.036970	-0.780063	-0.189745	0.040036	-0.716270	-0.172843	0.027967	-0.725248	
632	3.1600	-0.262284	1.409454	-0.591476	-0.205623	1.378585	-0.762222	-0.207962	1.394477	-0.421287	-0.147349	1.368734	-0.591808	-0.114419	0.983324	-0.509299	-0.117055	0.987303	-0.682990	-0.177855	1.034066	-0.457782	-0.169369	1.042932	-0.716138	-0.258743	1.014779	-0.523399	-0.258325	1.021658	-0.638877	-0.264998	1.025453	-0.581462	-0.195330	0.805657	-0.414543	-0.192502	0.743898	-0.409942	-0.121167	0.753616	-0.425836	-0.132306	0.812636	-0.428687	-0.248766	0.371631	-0.382358	-0.266536	0.332602	-0.386079	-0.208833	0.314733	-0.392512	-0.195884	0.352877	-0.393074	-0.351093	0.140171	-0.439911	-0.227110	0.041386	-0.374851	-0.194352	0.041462	-0.443489	-0.175802	0.028710	-0.435529	-0.218918	0.767527	-0.761864	-0.213038	0.708409	-0.761398	-0.141209	0.716634	-0.768029	-0.154967	0.776440	-0.769485	-0.266695	0.345540	-0.774798	-0.281311	0.307886	-0.770177	-0.220784	0.291002	-0.773382	-0.213835	0.334304	-0.777959	-0.342167	0.146529	-0.724506	-0.222883	0.037950	-0.780307	-0.188864	0.040792	-0.716877	-0.172305	0.028314	-0.725870	
633	3.1650	-0.262415	1.413312	-0.591475	-0.205955	1.382905	-0.762054	-0.207893	1.398625	-0.421559	-0.147556	1.372995	-0.591917	-0.114047	0.987065	-0.509576	-0.116646	0.991113	-0.682927	-0.177203	1.038084	-0.457918	-0.168804	1.046966	-0.716052	-0.257991	1.018922	-0.523407	-0.257682	1.025752	-0.638831	-0.264399	1.029587	-0.581459	-0.195386	0.809743	-0.414677	-0.192979	0.747968	-0.410014	-0.121530	0.757202	-0.425652	-0.132258	0.816285	-0.428602	-0.249494	0.374545	-0.382317	-0.266760	0.335285	-0.385869	-0.208848	0.318103	-0.392050	-0.196360	0.356373	-0.392794	-0.349042	0.142899	-0.439307	-0.226000	0.042726	-0.374847	-0.193303	0.042517	-0.443054	-0.175035	0.029148	-0.435062	-0.219546	0.771958	-0.761493	-0.214018	0.712731	-0.761098	-0.142252	0.720515	-0.768699	-0.155640	0.780445	-0.769899	-0.267080	0.348357	-0.775503	-0.281205	0.310483	-0.770923	-0.220507	0.294339	-0.774578	-0.214107	0.337740	-0.778997	-0.339765	0.149341	-0.725654	-0.221690	0.039019	-0.780580	-0.187905	0.041664	-0.717565	-0.171669	0.028775	-0.726597	
634	3.1700	-0.262533	1.416938	-0.591486	-0.206285	1.386978	-0.761911	-0.207836	1.402545	-0.421787	-0.147732	1.376989	-0.592027	-0.113692	0.990522	-0.509822	-0.116244	0.994635	-0.682872	-0.176579	1.041802	-0.458049	-0.168230	1.050713	-0.715973	-0.257279	1.022814	-0.523411	-0.257060	1.029606	-0.638796	-0.263823	1.033479	-0.581465	-0.195450	0.813527	-0.414801	-0.193434	0.751747	-0.410099	-0.121885	0.760517	-0.425513	-0.132227	0.819655	-0.428530	-0.250125	0.377299	-0.382324	-0.266922	0.337791	-0.385692	-0.208818	0.321282	-0.391640	-0.196756	0.359662	-0.392601	-0.347111	0.145468	-0.438774	-0.224894	0.044146	-0.374842	-0.192254	0.043641	-0.442584	-0.174234	0.029703	-0.434531	-0.220198	0.776027	-0.761030	-0.214992	0.716704	-0.760761	-0.143308	0.724125	-0.769341	-0.156368	0.784144	-0.770273	-0.267357	0.350984	-0.776167	-0.281029	0.312928	-0.771655	-0.220186	0.297469	-0.775689	-0.214291	0.340938	-0.779934	-0.337485	0.152013	-0.726799	-0.220468	0.040199	-0.780900	-0.186865	0.042678	-0.718357	-0.170931	0.029374	-0.727458	
635	3.1750	-0.262633	1.420323	-0.591505	-0.206611	1.390797	-0.761793	-0.207792	1.406228	-0.421975	-0.147872	1.380716	-0.592137	-0.113343	0.993708	-0.510040	-0.115853	0.997877	-0.682828	-0.175985	1.045219	-0.458175	-0.167656	1.054171	-0.715900	-0.256610	1.026448	-0.523421	-0.256473	1.033207	-0.638794	-0.263266	1.037120	-0.581474	-0.195522	0.817001	-0.414915	-0.193868	0.755212	-0.410198	-0.122225	0.763557	-0.425430	-0.132219	0.822742	-0.428480	-0.250644	0.379898	-0.382342	-0.267017	0.340132	-0.385547	-0.208743	0.324241	-0.391310	-0.197067	0.362738	-0.392444	-0.345317	0.147863	-0.438309	-0.223801	0.045645	-0.374826	-0.191210	0.044835	-0.442077	-0.173409	0.030387	-0.433928	-0.220869	0.779722	-0.760489	-0.215948	0.720329	-0.760407	-0.144364	0.727450	-0.769948	-0.157146	0.787521	-0.770606	-0.267521	0.353427	-0.776797	-0.280791	0.315216	-0.772387	-0.219816	0.300384	-0.776697	-0.214363	0.343951	-0.780791	-0.335367	0.154528	-0.727919	-0.219224	0.041500	-0.781286	-0.185744	0.043830	-0.719256	-0.170085	0.030147	-0.728462	
